<mxfile host="app.diagrams.net" agent="Mozilla/5.0 (Windows NT 10.0; Win64; x64) AppleWebKit/537.36 (KHTML, like Gecko) Chrome/141.0.0.0 Safari/537.36" version="28.2.7">
  <diagram name="第 1 页" id="rwvQUU1VZDa14L-n3xem">
    <mxGraphModel dx="1722" dy="926" grid="1" gridSize="10" guides="1" tooltips="1" connect="1" arrows="1" fold="1" page="1" pageScale="1" pageWidth="3300" pageHeight="4681" math="0" shadow="0">
      <root>
        <mxCell id="0" />
        <mxCell id="1" parent="0" />
        <mxCell id="N1VtvyNJMN4kxWVESvQm-2" value="" style="rounded=0;whiteSpace=wrap;html=1;" vertex="1" parent="1">
          <mxGeometry x="160" y="20" width="1030" height="750" as="geometry" />
        </mxCell>
        <mxCell id="N1VtvyNJMN4kxWVESvQm-3" value="&lt;b style=&quot;&quot;&gt;&lt;font style=&quot;font-size: 33px;&quot;&gt;Java 虚拟机体系&lt;/font&gt;&lt;/b&gt;" style="text;html=1;align=center;verticalAlign=middle;whiteSpace=wrap;rounded=0;labelBackgroundColor=none;textShadow=0;fillColor=#d5e8d4;strokeColor=#82b366;gradientColor=#97d077;" vertex="1" parent="1">
          <mxGeometry x="160" y="20" width="1030" height="70" as="geometry" />
        </mxCell>
        <mxCell id="N1VtvyNJMN4kxWVESvQm-5" value="" style="rounded=0;whiteSpace=wrap;html=1;" vertex="1" parent="1">
          <mxGeometry x="180" y="120" width="990" height="270" as="geometry" />
        </mxCell>
        <mxCell id="N1VtvyNJMN4kxWVESvQm-6" value="&lt;font style=&quot;font-size: 22px;&quot;&gt;Java 内存区域&lt;/font&gt;" style="text;html=1;align=center;verticalAlign=middle;whiteSpace=wrap;rounded=0;labelBackgroundColor=none;textShadow=0;fillColor=#dae8fc;strokeColor=#6c8ebf;" vertex="1" parent="1">
          <mxGeometry x="180" y="120" width="990" height="30" as="geometry" />
        </mxCell>
        <mxCell id="N1VtvyNJMN4kxWVESvQm-8" value="&lt;font style=&quot;font-size: 20px;&quot;&gt;Java 内存模型-抽象层&lt;/font&gt;" style="rounded=0;whiteSpace=wrap;html=1;dashed=1;dashPattern=8 4 1 4;labelBackgroundColor=none;fillColor=#ffe6cc;strokeColor=#d79b00;" vertex="1" parent="1">
          <mxGeometry x="180" y="400" width="990" height="50" as="geometry" />
        </mxCell>
        <mxCell id="N1VtvyNJMN4kxWVESvQm-9" value="" style="rounded=0;whiteSpace=wrap;html=1;" vertex="1" parent="1">
          <mxGeometry x="180" y="460" width="990" height="270" as="geometry" />
        </mxCell>
        <mxCell id="N1VtvyNJMN4kxWVESvQm-10" value="&lt;font style=&quot;font-size: 22px;&quot;&gt;虚拟机执行子系统&lt;/font&gt;" style="text;html=1;align=center;verticalAlign=middle;whiteSpace=wrap;rounded=0;labelBackgroundColor=none;textShadow=0;fillColor=#f5f5f5;fontColor=#333333;strokeColor=#666666;" vertex="1" parent="1">
          <mxGeometry x="180" y="460" width="990" height="30" as="geometry" />
        </mxCell>
        <mxCell id="N1VtvyNJMN4kxWVESvQm-11" value="" style="rounded=1;whiteSpace=wrap;html=1;" vertex="1" parent="1">
          <mxGeometry x="230" y="280" width="890" height="90" as="geometry" />
        </mxCell>
        <mxCell id="N1VtvyNJMN4kxWVESvQm-12" value="程序计数器" style="rounded=0;whiteSpace=wrap;html=1;" vertex="1" parent="1">
          <mxGeometry x="360" y="295" width="120" height="60" as="geometry" />
        </mxCell>
        <mxCell id="N1VtvyNJMN4kxWVESvQm-13" value="虚拟机栈" style="rounded=0;whiteSpace=wrap;html=1;" vertex="1" parent="1">
          <mxGeometry x="615" y="295" width="120" height="60" as="geometry" />
        </mxCell>
        <mxCell id="N1VtvyNJMN4kxWVESvQm-15" value="" style="rounded=1;whiteSpace=wrap;html=1;" vertex="1" parent="1">
          <mxGeometry x="230" y="160" width="890" height="90" as="geometry" />
        </mxCell>
        <mxCell id="N1VtvyNJMN4kxWVESvQm-16" value="本地方法栈" style="rounded=0;whiteSpace=wrap;html=1;" vertex="1" parent="1">
          <mxGeometry x="840" y="295" width="120" height="60" as="geometry" />
        </mxCell>
        <mxCell id="N1VtvyNJMN4kxWVESvQm-17" value="方法区" style="rounded=0;whiteSpace=wrap;html=1;" vertex="1" parent="1">
          <mxGeometry x="360" y="175" width="120" height="60" as="geometry" />
        </mxCell>
        <mxCell id="N1VtvyNJMN4kxWVESvQm-26" value="" style="rounded=1;whiteSpace=wrap;html=1;" vertex="1" parent="1">
          <mxGeometry x="230" y="510" width="890" height="90" as="geometry" />
        </mxCell>
        <mxCell id="N1VtvyNJMN4kxWVESvQm-18" value="堆" style="rounded=0;whiteSpace=wrap;html=1;" vertex="1" parent="1">
          <mxGeometry x="615" y="175" width="120" height="60" as="geometry" />
        </mxCell>
        <mxCell id="N1VtvyNJMN4kxWVESvQm-19" value="直接内存" style="rounded=0;whiteSpace=wrap;html=1;fillColor=default;dashed=1;" vertex="1" parent="1">
          <mxGeometry x="840" y="175" width="120" height="60" as="geometry" />
        </mxCell>
        <mxCell id="N1VtvyNJMN4kxWVESvQm-21" value="类文件" style="rounded=0;whiteSpace=wrap;html=1;" vertex="1" parent="1">
          <mxGeometry x="360" y="525" width="120" height="60" as="geometry" />
        </mxCell>
        <mxCell id="N1VtvyNJMN4kxWVESvQm-22" value="类加载机制" style="rounded=0;whiteSpace=wrap;html=1;" vertex="1" parent="1">
          <mxGeometry x="615" y="530" width="120" height="60" as="geometry" />
        </mxCell>
        <mxCell id="N1VtvyNJMN4kxWVESvQm-23" value="字节码执行引擎" style="rounded=0;whiteSpace=wrap;html=1;" vertex="1" parent="1">
          <mxGeometry x="840" y="530" width="120" height="60" as="geometry" />
        </mxCell>
        <mxCell id="N1VtvyNJMN4kxWVESvQm-25" style="edgeStyle=orthogonalEdgeStyle;rounded=0;orthogonalLoop=1;jettySize=auto;html=1;exitX=0.5;exitY=1;exitDx=0;exitDy=0;" edge="1" parent="1" source="N1VtvyNJMN4kxWVESvQm-23" target="N1VtvyNJMN4kxWVESvQm-23">
          <mxGeometry relative="1" as="geometry" />
        </mxCell>
        <mxCell id="N1VtvyNJMN4kxWVESvQm-27" value="" style="rounded=1;whiteSpace=wrap;html=1;" vertex="1" parent="1">
          <mxGeometry x="230" y="620" width="890" height="90" as="geometry" />
        </mxCell>
        <mxCell id="N1VtvyNJMN4kxWVESvQm-34" value="" style="rounded=0;whiteSpace=wrap;html=1;" vertex="1" parent="1">
          <mxGeometry x="247.5" y="630" width="345" height="70" as="geometry" />
        </mxCell>
        <mxCell id="N1VtvyNJMN4kxWVESvQm-35" value="&lt;span style=&quot;font-size: 13px;&quot;&gt;前端编译与优化&lt;/span&gt;" style="text;html=1;align=center;verticalAlign=middle;whiteSpace=wrap;rounded=0;labelBackgroundColor=none;textShadow=0;fillColor=#f5f5f5;fontColor=#333333;strokeColor=#666666;" vertex="1" parent="1">
          <mxGeometry x="247.5" y="630" width="345" height="30" as="geometry" />
        </mxCell>
        <mxCell id="N1VtvyNJMN4kxWVESvQm-28" value="Javac" style="rounded=0;whiteSpace=wrap;html=1;" vertex="1" parent="1">
          <mxGeometry x="262.5" y="670" width="120" height="20" as="geometry" />
        </mxCell>
        <mxCell id="N1VtvyNJMN4kxWVESvQm-36" value="语法糖" style="rounded=0;whiteSpace=wrap;html=1;" vertex="1" parent="1">
          <mxGeometry x="442.5" y="670" width="120" height="20" as="geometry" />
        </mxCell>
        <mxCell id="N1VtvyNJMN4kxWVESvQm-37" value="" style="rounded=0;whiteSpace=wrap;html=1;" vertex="1" parent="1">
          <mxGeometry x="727.5" y="630" width="345" height="70" as="geometry" />
        </mxCell>
        <mxCell id="N1VtvyNJMN4kxWVESvQm-38" value="&lt;span style=&quot;font-size: 13px;&quot;&gt;后端编译与优化&lt;/span&gt;" style="text;html=1;align=center;verticalAlign=middle;whiteSpace=wrap;rounded=0;labelBackgroundColor=none;textShadow=0;fillColor=#f5f5f5;fontColor=#333333;strokeColor=#666666;" vertex="1" parent="1">
          <mxGeometry x="727.5" y="630" width="345" height="30" as="geometry" />
        </mxCell>
        <mxCell id="N1VtvyNJMN4kxWVESvQm-39" value="即时编译器（JIT）" style="rounded=0;whiteSpace=wrap;html=1;" vertex="1" parent="1">
          <mxGeometry x="742.5" y="670" width="120" height="20" as="geometry" />
        </mxCell>
        <mxCell id="N1VtvyNJMN4kxWVESvQm-40" value="提前编译器（AOT）" style="rounded=0;whiteSpace=wrap;html=1;" vertex="1" parent="1">
          <mxGeometry x="922.5" y="670" width="120" height="20" as="geometry" />
        </mxCell>
      </root>
    </mxGraphModel>
  </diagram>
</mxfile>
